# xmcd
# Copyright (C) 1995-1998 Ti Kan
#
# Track frame offsets:
#       150
#       10870
#       28408
#       42100
#       60326
#       77312
#       94037
#       108905
#       126425
#       143761
#       165907
#       186823
#       222344
#       227363
#       238126
#
# Disc length: 3789 seconds
#
# Revision: 0
# Processed by: cddbd v1.5.2PL0 Copyright (c) Steve Scherf et al.
# Submitted via: CD-Transfer v1.0
#
DISCID=b70ecb0f
DTITLE=Various Artist - 
DYEAR=09
DGENRE=
TTITLE0=Knotty Pine Dirty Projectors Ft. David Byrne
TTITLE1=Cello Song Books, The Ft. Jose Gonzales
TTITLE2=Train Song Faist and Ben Gibbard
TTITLE3=Brackett, Wi Bon Hiver
TTITLE4=Deep Blue See Grizzly Bear
TTITLE5=So Far Around The Band National, The
TTITLE6=Tightrope Yeasayer
TTITLE7=Feeling Good My Brightest Diamond
TTITLE8=Dark Was A Night Kronos Quartet
TTITLE9=I Was Young When I Left Home Antony Ft. Bryce Dessner
TTITLE10=Big Redmachine Vernon, Vernon, Justin and Aaron Dessner
TTITLE11=Sleepless Decemberists, The
TTITLE12=Stolen Houses (Die) Iron and Wine
TTITLE13=Service Bell Grizzly Bear and Feist
TTITLE14=You Are The Blood Sufjan Stevens
EXTD=
EXTT0=
EXTT1=
EXTT2=
EXTT3=
EXTT4=
EXTT5=
EXTT6=
EXTT7=
EXTT8=
EXTT9=
EXTT10=
EXTT11=
EXTT12=
EXTT13=
EXTT14=
PLAYORDER=
